<svg width="68" height="188" viewBox="0 0 68 188" fill="none" xmlns="http://www.w3.org/2000/svg">
<path d="M14 0L55 2.6226e-05V176H13L14 0Z" fill="#F58500"/>
<path d="M6 2.6226e-05H62V182H6V2.6226e-05Z" fill="#F58500"/>
<path d="M0 6.00003H68V188H0V6.00003Z" fill="#F58500"/>
<path d="M24 42H44.496V44.2773H26.2773V51.1093H24V42Z" fill="#ECE7E1"/>
<path d="M24 56.8026H37.664V59.08H24V56.8026ZM39.9413 56.8026H42.2186V59.08H39.9413V56.8026Z" fill="#ECE7E1"/>
<path d="M24 64.7777H37.664V73.887H35.3866V67.0551H24V64.7777ZM24 73.887H35.3866V76.1644H24V73.887Z" fill="#ECE7E1"/>
<path d="M24 81.8488H44.496V84.1261H33.1093V86.4034H30.832V84.1261H24V81.8488ZM28.5547 86.4034H30.832V88.6808H28.5547V86.4034ZM33.1093 86.4034H35.3866V88.6808H33.1093V86.4034ZM28.5547 88.6808V90.9581H24V88.6808H28.5547ZM35.3866 88.6808H37.664V90.9581H35.3866V88.6808Z" fill="#ECE7E1"/>
<path d="M26.2773 96.6514H35.3866V98.9287H33.1093V105.761H35.3866V108.038H30.832V98.9287H26.2773V96.6514ZM26.2773 98.9287V108.038H24V98.9287H26.2773ZM35.3866 98.9287H37.664V105.761H35.3866V98.9287Z" fill="#ECE7E1"/>
<path d="M26.2773 113.722H35.3866V116H26.2773V113.722ZM26.2773 122.832H35.3866V116H37.664V122.832H44.496V125.109H24V116H26.2773V122.832Z" fill="#ECE7E1"/>
<path d="M24 130.794H37.664V133.071H24V130.794ZM39.9413 130.794H42.2186V133.071H39.9413V130.794Z" fill="#ECE7E1"/>
<path d="M24 138.769H37.664V147.878H35.3866V141.046H24V138.769ZM24 147.878H35.3866V150.155H24V147.878Z" fill="#ECE7E1"/>
</svg>
