<svg width="68" height="161" viewBox="0 0 68 161" fill="none" xmlns="http://www.w3.org/2000/svg">
<path d="M14 0L55 2.24595e-05V150.723H13L14 0Z" fill="#F58500"/>
<path d="M6 2.24595e-05H62V155.862H6V2.24595e-05Z" fill="#F58500"/>
<path d="M0 5.13832H68V161H0V5.13832Z" fill="#F58500"/>
<path d="M26.2773 37H42.2186V39.2773H26.2773V37ZM26.2773 39.2773V46.1093H24V39.2773H26.2773ZM42.2186 39.2773H44.496V48.3866H42.2186V39.2773ZM33.1093 41.5547H35.3866V48.3866H26.2773V46.1093H33.1093V41.5547Z" fill="#ECE7E1"/>
<path d="M24 54.0711H37.664V56.3484H24V54.0711ZM39.9413 54.0711H42.2186V56.3484H39.9413V54.0711Z" fill="#ECE7E1"/>
<path d="M35.3866 62.0462H37.664V64.3235H42.2186V66.6008H37.664V71.1555H35.3866V66.6008H26.2773V64.3235H35.3866V62.0462ZM26.2773 66.6008V71.1555H24V66.6008H26.2773Z" fill="#ECE7E1"/>
<path d="M24 76.8488H44.496V79.1261H37.664V85.9581H35.3866V79.1261H24V76.8488ZM24 85.9581H35.3866V88.2354H24V85.9581Z" fill="#ECE7E1"/>
<path d="M26.2773 93.9199H37.664V96.1972H26.2773V93.9199ZM26.2773 103.029H37.664V105.306H24V96.1972H26.2773V103.029Z" fill="#ECE7E1"/>
<path d="M24 110.991H44.496V113.268H37.664V120.1H35.3866V113.268H26.2773V120.1H24V110.991ZM26.2773 120.1H35.3866V122.378H26.2773V120.1Z" fill="#ECE7E1"/>
</svg>
