<svg width="68" height="132" viewBox="0 0 68 132" fill="none" xmlns="http://www.w3.org/2000/svg">
<path d="M14 0L55 1.8414e-05V123.574H13L14 0Z" fill="#222"/>
<path d="M6 1.8414e-05H62V127.787H6V1.8414e-05Z" fill="#222"/>
<path d="M0 4.21278H68V132H0V4.21278Z" fill="#222"/>
<path d="M24 37H44.496V46.1093H42.2186V39.2773H35.3866V46.1093H33.1093V39.2773H26.2773V46.1093H24V37ZM26.2773 46.1093H33.1093V48.3866H26.2773V46.1093ZM35.3866 46.1093H42.2186V48.3866H35.3866V46.1093Z" fill="#ECE7E1"/>
<path d="M26.2773 54.0711H44.496V56.3484H26.2773V54.0711ZM26.2773 56.3484V58.6257H24V56.3484H26.2773Z" fill="#ECE7E1"/>
<path d="M26.2773 64.3146H35.3866V66.5919H26.2773V64.3146ZM26.2773 73.4239H24V66.5919H26.2773V73.4239ZM35.3866 73.4239V75.7012H26.2773V73.4239H35.3866ZM37.664 73.4239H35.3866V66.5919H37.664V73.4239Z" fill="#ECE7E1"/>
<path d="M21.7227 81.3857H24V90.495H21.7227V81.3857ZM28.5547 81.3857H35.3866V83.663H28.5547V81.3857ZM28.5547 83.663V90.495H35.3866V83.663H37.664V92.7723H24V90.495H26.2773V83.663H28.5547Z" fill="#ECE7E1"/>
</svg>
