<svg width="36" height="39" viewBox="0 0 36 39" fill="none" xmlns="http://www.w3.org/2000/svg">
<path fill-rule="evenodd" clip-rule="evenodd" d="M10.0666 3H25.671V8.03402H30.2015V13.0673H35.2353V28.1683H30.2015V33.2024H25.671V38.7391H10.0666V33.2024H5.03373V28.1683H0V13.0673H5.03373V8.03402H10.0666V3Z" fill="#1A1818"/>
<path d="M11.1199 28.0254V25.4981H13.6472V28.0254H11.1199ZM11.1199 15.3891V12.8618H13.6472V15.3891H11.1199ZM16.1745 22.9709V25.4981H13.6472V22.9709H16.1745ZM16.1745 15.3891V17.9164H13.6472V15.3891H16.1745ZM16.1745 17.9164H18.7017V22.9709H16.1745V17.9164ZM21.229 22.9709V25.4981H18.7017V22.9709H21.229ZM21.229 25.4981H23.7562V28.0254H21.229V25.4981ZM21.229 15.3891V17.9164H18.7017V15.3891H21.229ZM21.229 12.8618H23.7562V15.3891H21.229V12.8618Z" fill="white"/>
</svg>
