<svg width="28" height="28" viewBox="0 0 28 28" fill="none" xmlns="http://www.w3.org/2000/svg">
<path d="M4.53237 0.000976562H12.2807V3.87514H4.53237V0.000976562Z" fill="#222222"/>
<path d="M16.1549 0.000976562H23.9032V3.87514H16.1549V0.000976562Z" fill="#222222"/>
<path d="M0.658203 3.87514H4.53237V15.4976H0.658203V3.87514Z" fill="#222222"/>
<path d="M23.9032 3.87514H27.7773V15.4976H23.9032V3.87514Z" fill="#222222"/>
<path d="M4.53237 15.4976H8.40653V19.3718H4.53237V15.4976Z" fill="#222222"/>
<path d="M8.40653 19.3718H12.2807V23.246H8.40653V19.3718Z" fill="#222222"/>
<path d="M12.2807 23.246H16.1549V27.1201H12.2807V23.246Z" fill="#222222"/>
<path d="M16.1549 19.3718H20.029V23.246H16.1549V19.3718Z" fill="#222222"/>
<path d="M20.029 15.4976H23.9032V19.3718H20.029V15.4976Z" fill="#222222"/>
<path d="M12.2807 3.87514H16.1549V7.7493H12.2807V3.87514Z" fill="#222222"/>
<path d="M12.2807 3.87514H4.53237V15.4976H8.40653V19.3718H12.2807V23.246H16.1549V19.3718H20.029V15.4976H23.9032V3.87514H16.1549V7.7493H12.2807V3.87514Z" fill="#F58500"/>
</svg>
