<svg width="28" height="28" viewBox="0 0 28 28" fill="none" xmlns="http://www.w3.org/2000/svg">
<path d="M4.75335 0H12.5022V3.87444H4.75335V0Z" fill="#222222"/>
<path d="M16.3767 0H24.1256V3.87444H16.3767V0Z" fill="#222222"/>
<path d="M0.878906 3.87444H4.75335V15.4978H0.878906V3.87444Z" fill="#222222"/>
<path d="M24.1256 3.87444H28V15.4978H24.1256V3.87444Z" fill="#222222"/>
<path d="M4.75335 15.4978H8.62779V19.3722H4.75335V15.4978Z" fill="#222222"/>
<path d="M8.62779 19.3722H12.5022V23.2467H8.62779V19.3722Z" fill="#222222"/>
<path d="M12.5022 23.2467H16.3767V27.1211H12.5022V23.2467Z" fill="#222222"/>
<path d="M16.3767 19.3722H20.2511V23.2467H16.3767V19.3722Z" fill="#222222"/>
<path d="M20.2511 15.4978H24.1256V19.3722H20.2511V15.4978Z" fill="#222222"/>
<path d="M12.5022 3.87444H16.3767V7.74888H12.5022V3.87444Z" fill="#222222"/>
</svg>
