<svg id="Layer_1" data-name="Layer 1" xmlns="http://www.w3.org/2000/svg" viewBox="0 0 405.82 423.66">
  <defs>
    <style>
      .cls-1 {
        fill: #1d1d1b;
      }

      .cls-2 {
        fill: #ece7e1;
      }
    </style>
  </defs>
  <rect class="cls-1" width="405.82" height="423.66" rx="129.53"/>
  <path class="cls-2" d="M311.81,328.55a1.85,1.85,0,0,0-.14-.14c-18.56-18.53-35.12-24.74-51.86-30-16.94-5.28-41.27-3.32-62,5-25.74,10.34-47.47,31-44.35,61.12-34.13,10.85-55.29,28.58-49,42.91,7.38,16.73,49.41,22.47,93.86,12.84a179.5,179.5,0,0,0,36.06-11.66,107,107,0,0,0,15.46-8.53c13.16-8.91,19.46-18.86,15.62-27.55-1.61-3.66-4.89-6.78-9.48-9.34a52.63,52.63,0,0,1,23.73-23.33c3.54-1.73,8.43-3.55,13-3.41C326,370.29,344,410.24,353.5,447.32a53.54,53.54,0,0,0-10.26,13.11,43.3,43.3,0,0,0-1.61,39.26c13.41,30.4,57,47.95,97.43,39.19s62.27-40.5,48.86-70.9-57-48-97.43-39.19A87.92,87.92,0,0,0,373,434.48c-1.55-5.33-3.27-10.71-5.2-16.11A2.87,2.87,0,0,0,368,418c8.12-37.38,33-67.38,66.6-80.25,11.86-4.54,23.36-6.24,34.18-5,5.48.6,12.12-1.27,14.83-4.2s.48-5.78-5-6.39c-17.22-1.9-36.63.86-54.68,7.78-30.52,11.7-54.16,33.14-67.83,60.73a233.19,233.19,0,0,0-44.28-62.08m-45.57,4.75a69.67,69.67,0,0,0-28,23.95l-.75-.16a124.05,124.05,0,0,0-17.82-1.9,191.55,191.55,0,0,0-41.18,3.19c-1,.19-2.09.39-3.13.6-1.41-24.25,15.13-40.45,33.68-47.9,12.48-5,25.84-6.16,35.75-3.08,12.83,4,24.78,8.39,38.12,19.4A78.08,78.08,0,0,0,266.24,333.3Z" transform="translate(-97.31 -210.8)"/>
</svg>
