<svg width="15" height="15" viewBox="0 0 15 15" fill="none" xmlns="http://www.w3.org/2000/svg">
<path d="M2.98041 0H8.94122V1.4902H7.45102V2.98041H5.96081V1.4902H2.98041V0ZM1.4902 2.98041V1.4902H2.98041V2.98041H1.4902ZM1.4902 10.4314H0V2.98041H1.4902V10.4314ZM2.98041 11.9216H1.4902V10.4314H2.98041V11.9216ZM4.47061 13.4118H2.98041V11.9216H4.47061V13.4118ZM11.9216 13.4118V14.902H4.47061V13.4118H11.9216ZM13.4118 11.9216V13.4118H11.9216V11.9216H13.4118ZM11.9216 8.94122H13.4118V11.9216H14.902V5.96081H13.4118V7.45102H11.9216V8.94122ZM7.45102 8.94122V10.4314H11.9216V8.94122H7.45102ZM5.96081 7.45102H7.45102V8.94122H5.96081V7.45102ZM5.96081 7.45102V2.98041H4.47061V7.45102H5.96081Z" fill="white"/>
</svg>
