<svg id="Layer_1" data-name="Layer 1" xmlns="http://www.w3.org/2000/svg" viewBox="0 0 46.07 4.81">
  <defs>
    <style>
      .cls-1 {
        fill: #231f20;
      }
    </style>
  </defs>
  <polygon class="cls-1" points="2.45 4.81 1.91 2.91 0 2.45 1.9 1.91 2.36 0 2.89 1.9 4.81 2.36 2.91 2.89 2.45 4.81"/>
  <polygon class="cls-1" points="10.7 4.81 10.17 2.91 8.25 2.45 10.15 1.91 10.61 0 11.15 1.9 13.06 2.36 11.17 2.89 10.7 4.81"/>
  <polygon class="cls-1" points="18.96 4.81 18.42 2.91 16.51 2.45 18.4 1.91 18.86 0 19.4 1.9 21.31 2.36 19.42 2.89 18.96 4.81"/>
  <polygon class="cls-1" points="27.21 4.81 26.67 2.91 24.76 2.45 26.65 1.91 27.12 0 27.65 1.9 29.57 2.36 27.67 2.89 27.21 4.81"/>
  <polygon class="cls-1" points="35.46 4.81 34.93 2.91 33.01 2.45 34.91 1.91 35.37 0 35.91 1.9 37.82 2.36 35.92 2.89 35.46 4.81"/>
  <polygon class="cls-1" points="43.72 4.81 43.18 2.91 41.27 2.45 43.16 1.91 43.62 0 44.16 1.9 46.07 2.36 44.18 2.89 43.72 4.81"/>
</svg>
