<svg width="14" height="14" viewBox="0 0 14 14" fill="none" xmlns="http://www.w3.org/2000/svg">
<path d="M7.45101 0H5.96081V1.4902H7.45101V0ZM10.4314 1.4902H11.9216V2.98041H10.4314V1.4902ZM5.96081 5.96081H7.45101V7.45101H5.96081V5.96081ZM0 5.96081H1.4902V7.45101H0V5.96081ZM13.4118 5.96081H11.9216V7.45101H13.4118V5.96081ZM1.4902 1.4902H2.98041V2.98041H1.4902V1.4902ZM11.9216 11.9216H10.4314V10.4314H11.9216V11.9216ZM5.96081 13.4118H7.45101V11.9216H5.96081V13.4118ZM2.98041 11.9216H1.4902V10.4314H2.98041V11.9216ZM4.47061 2.98041H8.94122V4.47061H4.47061V2.98041ZM4.47061 8.94122H2.98041V4.47061H4.47061V8.94122ZM4.47061 8.94122V10.4314H8.94122V8.94122H10.4314V4.47061H8.94122V8.94122H4.47061Z" fill="#1A1818"/>
</svg>
